mtllib ./021.mtl
# Unity Asset Buildr OBJ Exporter
 http://buildr.jasperstocker.com
g 021
v -2020 0 108
v -2020 12 108
v -2028 0 100
v -2028 12 100
v -2020 12 108
v -2020 24 108
v -2028 12 100
v -2028 24 100
v -2028 0 100
v -2028 12 100
v -2036 0 100
v -2036 12 100
v -2028 12 100
v -2028 24 100
v -2036 12 100
v -2036 24 100
v -2036 0 100
v -2036 12 100
v -2044 0 108
v -2044 12 108
v -2036 12 100
v -2036 24 100
v -2044 12 108
v -2044 24 108
v -2044 0 108
v -2044 12 108
v -2056 0 108
v -2056 12 108
v -2044 12 108
v -2044 24 108
v -2056 12 108
v -2056 24 108
v -2056 0 108
v -2056 12 108
v -2068 0 116
v -2068 12 116
v -2056 12 108
v -2056 24 108
v -2068 12 116
v -2068 24 116
v -2068 0 116
v -2068 12 116
v -2068 0 140
v -2068 12 140
v -2068 12 116
v -2068 24 116
v -2068 12 140
v -2068 24 140
v -2068 0 140
v -2068 12 140
v -2020 0 140
v -2020 12 140
v -2068 12 140
v -2068 24 140
v -2020 12 140
v -2020 24 140
v -2020 0 140
v -2020 12 140
v -2020 0 108
v -2020 12 108
v -2020 12 140
v -2020 24 140
v -2020 12 108
v -2020 24 108
v -2020 0 108
v -2028 0 100
v -2036 0 100
v -2044 0 108
v -2056 0 108
v -2068 0 116
v -2068 0 140
v -2020 0 140
v -2020 24 140
v -2068 24 140
v -2020 24 108
v -2068 24 116
v -2056 24 108
v -2044 24 108
v -2036 24 100
v -2028 24 100
v -2028.077 24 100.1848
v -2028.077 25 100.1848
v -2020.185 24 108.0765
v -2020.185 25 108.0765
v -2020.185 25 108.0765
v -2028.077 25 100.1848
v -2027.962 25 99.90762
v -2019.908 25 107.9617
v -2019.908 24 107.9617
v -2019.908 25 107.9617
v -2027.962 24 99.90762
v -2027.962 25 99.90762
v -2028.077 24 100.1848
v -2020.185 24 108.0765
v -2019.908 24 107.9617
v -2027.962 24 99.90762
v -2035.923 24 100.1848
v -2035.923 25 100.1848
v -2028.077 24 100.1848
v -2028.077 25 100.1848
v -2028.077 25 100.1848
v -2035.923 25 100.1848
v -2036.038 25 99.90762
v -2027.962 25 99.90762
v -2027.962 24 99.90762
v -2027.962 25 99.90762
v -2036.038 24 99.90762
v -2036.038 25 99.90762
v -2035.923 24 100.1848
v -2028.077 24 100.1848
v -2027.962 24 99.90762
v -2036.038 24 99.90762
v -2043.923 24 108.1848
v -2043.923 25 108.1848
v -2035.923 24 100.1848
v -2035.923 25 100.1848
v -2035.923 25 100.1848
v -2043.923 25 108.1848
v -2044.038 25 107.9076
v -2036.038 25 99.90762
v -2036.038 24 99.90762
v -2036.038 25 99.90762
v -2044.038 24 107.9076
v -2044.038 25 107.9076
v -2043.923 24 108.1848
v -2035.923 24 100.1848
v -2036.038 24 99.90762
v -2044.038 24 107.9076
v -2055.942 24 108.1914
v -2055.942 25 108.1914
v -2043.923 24 108.1848
v -2043.923 25 108.1848
v -2043.923 25 108.1848
v -2055.942 25 108.1914
v -2056.029 25 107.9043
v -2044.038 25 107.9076
v -2044.038 24 107.9076
v -2044.038 25 107.9076
v -2056.029 24 107.9043
v -2056.029 25 107.9043
v -2055.942 24 108.1914
v -2043.923 24 108.1848
v -2044.038 24 107.9076
v -2056.029 24 107.9043
v -2067.824 24 116.0944
v -2067.824 25 116.0944
v -2055.942 24 108.1914
v -2055.942 25 108.1914
v -2055.942 25 108.1914
v -2067.824 25 116.0944
v -2068.088 25 115.9528
v -2056.029 25 107.9043
v -2056.029 24 107.9043
v -2056.029 25 107.9043
v -2068.088 24 115.9528
v -2068.088 25 115.9528
v -2067.824 24 116.0944
v -2055.942 24 108.1914
v -2056.029 24 107.9043
v -2068.088 24 115.9528
v -2067.859 24 139.8586
v -2067.859 25 139.8586
v -2067.824 24 116.0944
v -2067.824 25 116.0944
v -2067.824 25 116.0944
v -2067.859 25 139.8586
v -2068.071 25 140.0707
v -2068.088 25 115.9528
v -2068.088 24 115.9528
v -2068.088 25 115.9528
v -2068.071 24 140.0707
v -2068.071 25 140.0707
v -2067.859 24 139.8586
v -2067.824 24 116.0944
v -2068.088 24 115.9528
v -2068.071 24 140.0707
v -2020.141 24 139.8586
v -2020.141 25 139.8586
v -2067.859 24 139.8586
v -2067.859 25 139.8586
v -2067.859 25 139.8586
v -2020.141 25 139.8586
v -2019.929 25 140.0707
v -2068.071 25 140.0707
v -2068.071 24 140.0707
v -2068.071 25 140.0707
v -2019.929 24 140.0707
v -2019.929 25 140.0707
v -2020.141 24 139.8586
v -2067.859 24 139.8586
v -2068.071 24 140.0707
v -2019.929 24 140.0707
v -2020.185 24 108.0765
v -2020.185 25 108.0765
v -2020.141 24 139.8586
v -2020.141 25 139.8586
v -2020.141 25 139.8586
v -2020.185 25 108.0765
v -2019.908 25 107.9617
v -2019.929 25 140.0707
v -2019.929 24 140.0707
v -2019.929 25 140.0707
v -2019.908 24 107.9617
v -2019.908 25 107.9617
v -2020.185 24 108.0765
v -2020.141 24 139.8586
v -2019.929 24 140.0707
v -2019.908 24 107.9617

vn 0.7071068 0 -0.7071068
vn 0.7071068 0 -0.7071068
vn 0.7071068 0 -0.7071068
vn 0.7071068 0 -0.7071068
vn 0.7071068 0 -0.7071068
vn 0.7071068 0 -0.7071068
vn 0.7071068 0 -0.7071068
vn 0.7071068 0 -0.7071068
vn 0 0 -1
vn 0 0 -1
vn 0 0 -1
vn 0 0 -1
vn 0 0 -1
vn 0 0 -1
vn 0 0 -1
vn 0 0 -1
vn -0.7071068 0 -0.7071068
vn -0.7071068 0 -0.7071068
vn -0.7071068 0 -0.7071068
vn -0.7071068 0 -0.7071068
vn -0.7071068 0 -0.7071068
vn -0.7071068 0 -0.7071068
vn -0.7071068 0 -0.7071068
vn -0.7071068 0 -0.7071068
vn 0 0 -1
vn 0 0 -1
vn 0 0 -1
vn 0 0 -1
vn 0 0 -1
vn 0 0 -1
vn 0 0 -1
vn 0 0 -1
vn -0.5547002 0 -0.8320503
vn -0.5547002 0 -0.8320503
vn -0.5547002 0 -0.8320503
vn -0.5547002 0 -0.8320503
vn -0.5547002 0 -0.8320503
vn -0.5547002 0 -0.8320503
vn -0.5547002 0 -0.8320503
vn -0.5547002 0 -0.8320503
vn -1 0 0
vn -1 0 0
vn -1 0 0
vn -1 0 0
vn -1 0 0
vn -1 0 0
vn -1 0 0
vn -1 0 0
vn 0 0 1
vn 0 0 1
vn 0 0 1
vn 0 0 1
vn 0 0 1
vn 0 0 1
vn 0 0 1
vn 0 0 1
vn 1 0 0
vn 1 0 0
vn 1 0 0
vn 1 0 0
vn 1 0 0
vn 1 0 0
vn 1 0 0
vn 1 0 0
vn 0 -1 0
vn 0 -1 0
vn 0 -1 0
vn 0 -1 0
vn 0 -1 0
vn 0 -1 0
vn 0 -1 0
vn 0 -1 0
vn 0 1 0
vn 0 1 0
vn 0 1 0
vn 0 1 0
vn 0 1 0
vn 0 1 0
vn 0 1 0
vn 0 1 0
vn -0.7071086 0 0.7071051
vn -0.7071086 0 0.7071051
vn -0.7071086 0 0.7071051
vn -0.7071086 0 0.7071051
vn 0 1 0
vn 0 0.9999999 0
vn 0 1 0
vn 0 1 0
vn 0.7071031 0 -0.7071105
vn 0.7071031 0 -0.7071105
vn 0.7071031 0 -0.7071105
vn 0.7071031 0 -0.7071105
vn 0 -1 0
vn 0 -1 0
vn 0 -1 0
vn 0 -1 0
vn 0 0 1
vn 0 0 1
vn 0 0 1
vn 0 0 1
vn 0 1 0
vn 0 1 0
vn 0 1 0
vn 0 1 0
vn 0 0 -1
vn 0 0 -1
vn 0 0 -1
vn 0 0 -1
vn 0 -1 0
vn 0 -1 0
vn 0 -1 0
vn 0 -1 0
vn 0.7071068 0 0.7071068
vn 0.7071068 0 0.7071068
vn 0.7071068 0 0.7071068
vn 0.7071068 0 0.7071068
vn 0 1 0
vn 0 1 0
vn 0 1 0
vn 0 1 0
vn -0.7071068 0 -0.7071068
vn -0.7071068 0 -0.7071068
vn -0.7071068 0 -0.7071068
vn -0.7071068 0 -0.7071068
vn 0 -1 0
vn 0 -1 0
vn 0 -1 0
vn 0 -1 0
vn 0.0005529062 0 0.9999998
vn 0.0005529062 0 0.9999998
vn 0.0005529062 0 0.9999998
vn 0.0005529062 0 0.9999998
vn 0 1 0
vn 0 0.9999999 0
vn 0 1 0
vn 0 0.9999999 0
vn 0.000277413 0 -1
vn 0.000277413 0 -1
vn 0.000277413 0 -1
vn 0.000277413 0 -1
vn 0 -1 0
vn 0 -1 0
vn 0 -1 0
vn 0 -1 0
vn 0.553821 0 0.8326357
vn 0.553821 0 0.8326357
vn 0.553821 0 0.8326357
vn 0.553821 0 0.8326357
vn 0 0.9999999 0
vn 0 1 0
vn 0 0.9999999 0
vn 0 1 0
vn -0.5551363 0 -0.8317594
vn -0.5551363 0 -0.8317594
vn -0.5551363 0 -0.8317594
vn -0.5551363 0 -0.8317594
vn 0 -0.9999999 0
vn 0 -1 0
vn 0 -0.9999999 0
vn 0 -1 0
vn 0.9999989 0 0.001469103
vn 0.9999989 0 0.001469103
vn 0.9999989 0 0.001469103
vn 0.9999989 0 0.001469103
vn 0 1 0
vn 0 1 0
vn 0 1 0
vn 0 1 0
vn -0.9999998 0 0.0007187186
vn -0.9999998 0 0.0007187186
vn -0.9999998 0 0.0007187186
vn -0.9999998 0 0.0007187186
vn 0 -1 0
vn 0 -1 0
vn 0 -1 0
vn 0 -1 0
vn 0 0 -1
vn 0 0 -1
vn 0 0 -1
vn 0 0 -1
vn 0 1 0
vn 0 1 0
vn 0 1 0
vn 0 1 0
vn 0 0 0.9999999
vn 0 0 0.9999999
vn 0 0 0.9999999
vn 0 0 0.9999999
vn 0 -1 0
vn 0 -1 0
vn 0 -1 0
vn 0 -1 0
vn -0.999999 0 0.001363503
vn -0.999999 0 0.001363503
vn -0.999999 0 0.001363503
vn -0.999999 0 0.001363503
vn 0 1 0
vn 0 1 0
vn 0 1 0
vn 0 0.9999999 0
vn 0.9999998 0 0.0006767114
vn 0.9999998 0 0.0006767114
vn 0.9999998 0 0.0006767114
vn 0.9999998 0 0.0006767114
vn 0 -1 0
vn 0 -1 0
vn 0 -1 0
vn 0 -1 0

vt 0 0
vt 0 1
vt 0.942809 0
vt 0.942809 1
vt 0 1
vt 0 2
vt 0.942809 1
vt 0.942809 2
vt 0 0
vt 0 1
vt 0.6666667 0
vt 0.6666667 1
vt 0 1
vt 0 2
vt 0.6666667 1
vt 0.6666667 2
vt 0 0
vt 0 1
vt 0.942809 0
vt 0.942809 1
vt 0 1
vt 0 2
vt 0.942809 1
vt 0.942809 2
vt 0 0
vt 0 1
vt 1 0
vt 1 1
vt 0 1
vt 0 2
vt 1 1
vt 1 2
vt 0 0
vt 0 1
vt 1.20185 0
vt 1.20185 1
vt 0 1
vt 0 2
vt 1.20185 1
vt 1.20185 2
vt 0 0
vt 0 1
vt 2 0
vt 2 1
vt 0 1
vt 0 2
vt 2 1
vt 2 2
vt 0 0
vt 0 1
vt 4 0
vt 4 1
vt 0 1
vt 0 2
vt 4 1
vt 4 2
vt 0 0
vt 0 1
vt 2.666667 0
vt 2.666667 1
vt 0 1
vt 0 2
vt 2.666667 1
vt 2.666667 2
vt 0 0
vt 0 0
vt 0 0
vt 0 0
vt 0 0
vt 0 0
vt 0 0
vt 0 0
vt 336.6667 23.33333
vt 344.6667 23.33333
vt 336.6667 18
vt 344.6667 19.33333
vt 342.6667 18
vt 340.6667 18
vt 339.3333 16.66667
vt 338 16.66667
vt 0 0
vt 0 0.3333333
vt 3.720203 0
vt 3.720203 0.3333333
vt -11.16061 2.720918E-05
vt 0 0
vt 0.1148444 -0.2771199
vt -11.27545 -0.277179
vt 0 0
vt 0 0.3333333
vt 3.796766 0
vt 3.796766 0.3333333
vt 11.16061 2.720918E-05
vt 0 0
vt -0.1148444 0.2772062
vt 11.27545 0.2771471
vt 0 0
vt 0 0.3333333
vt 2.615641 0
vt 2.615641 0.3333333
vt -7.846924 0
vt 0 0
vt 0.1147461 -0.2771607
vt -7.96167 -0.2771607
vt 0 0
vt 0 0.3333333
vt 2.692139 0
vt 2.692139 0.3333333
vt 7.846924 0
vt 0 0
vt -0.1147461 0.2771607
vt 7.96167 0.2771607
vt 0 0
vt 0 0.3333333
vt 3.771236 0
vt 3.771236 0.3333333
vt -11.31371 -2.384186E-07
vt 0 0
vt -0.1148444 -0.2771199
vt -11.42855 -0.2771202
vt 0 0
vt 0 0.3333333
vt 3.771236 0
vt 3.771236 0.3333333
vt 11.31371 -2.384186E-07
vt 0 0
vt -0.1148444 0.2771199
vt 11.19886 0.2771197
vt 0 0
vt 0 0.3333333
vt 4.006226 0
vt 4.006226 0.3333333
vt -12.01868 -0.006645204
vt 0 0
vt 0.08691406 -0.2871323
vt -11.90393 -0.2838059
vt 0 0
vt 0 0.3333333
vt 3.996948 0
vt 3.996948 0.3333333
vt 12.01868 -0.006645204
vt 0 0
vt 0.1147461 0.2771607
vt 12.10559 0.2804871
vt 0 0
vt 0 0.3333333
vt 4.756618 0
vt 4.756618 0.3333333
vt -14.26985 0.01507295
vt 0 0
vt 0.1414766 -0.2644467
vt -14.3568 -0.2720468
vt 0 0
vt 0 0.3333333
vt 4.832761 0
vt 4.832761 0.3333333
vt 14.26985 0.01507295
vt 0 0
vt -0.08695549 0.2871198
vt 14.41132 0.2795196
vt 0 0
vt 0 0.3333333
vt 7.921413 0
vt 7.921413 0.3333333
vt -23.76422 0.03491495
vt 0 0
vt 0.2121277 -0.2121583
vt -23.90578 -0.2294894
vt 0 0
vt 0 0.3333333
vt 8.039301 0
vt 8.039301 0.3333333
vt 23.76422 0.03491495
vt 0 0
vt -0.1415559 0.2644044
vt 23.97635 0.2470732
vt 0 0
vt 0 0.3333333
vt 15.90572 0
vt 15.90572 0.3333333
vt 47.71716 0
vt 0 0
vt -0.2121582 0.2121277
vt 47.92932 0.2121277
vt 0 0
vt 0 0.3333333
vt 16.04716 0
vt 16.04716 0.3333333
vt -47.71716 0
vt 0 0
vt 0.2121582 -0.2121277
vt -47.92932 -0.2121277
vt 0 0
vt 0 0.3333333
vt 10.59402 0
vt 10.59402 0.3333333
vt -31.78205 -0.04333876
vt 0 0
vt 0.1148073 -0.2772217
vt -31.99418 -0.255497
vt 0 0
vt 0 0.3333333
vt 10.703 0
vt 10.703 0.3333333
vt 31.78205 -0.04333876
vt 0 0
vt -0.2121277 0.2121583
vt 31.89686 0.233883

g bricks
usemtl bricks
usemap bricks
f 2/2/2 1/1/1 3/3/3
f 2/2/2 3/3/3 4/4/4
f 6/6/6 5/5/5 7/7/7
f 6/6/6 7/7/7 8/8/8
f 10/10/10 9/9/9 11/11/11
f 10/10/10 11/11/11 12/12/12
f 14/14/14 13/13/13 15/15/15
f 14/14/14 15/15/15 16/16/16
f 18/18/18 17/17/17 19/19/19
f 18/18/18 19/19/19 20/20/20
f 22/22/22 21/21/21 23/23/23
f 22/22/22 23/23/23 24/24/24
f 26/26/26 25/25/25 27/27/27
f 26/26/26 27/27/27 28/28/28
f 30/30/30 29/29/29 31/31/31
f 30/30/30 31/31/31 32/32/32
f 34/34/34 33/33/33 35/35/35
f 34/34/34 35/35/35 36/36/36
f 38/38/38 37/37/37 39/39/39
f 38/38/38 39/39/39 40/40/40
f 42/42/42 41/41/41 43/43/43
f 42/42/42 43/43/43 44/44/44
f 46/46/46 45/45/45 47/47/47
f 46/46/46 47/47/47 48/48/48
f 50/50/50 49/49/49 51/51/51
f 50/50/50 51/51/51 52/52/52
f 54/54/54 53/53/53 55/55/55
f 54/54/54 55/55/55 56/56/56
f 58/58/58 57/57/57 59/59/59
f 58/58/58 59/59/59 60/60/60
f 62/62/62 61/61/61 63/63/63
f 62/62/62 63/63/63 64/64/64
f 66/66/66 65/65/65 67/67/67
f 67/67/67 65/65/65 68/68/68
f 68/68/68 65/65/65 69/69/69
f 69/69/69 65/65/65 70/70/70
f 70/70/70 65/65/65 71/71/71
f 71/71/71 65/65/65 72/72/72

g roof
usemtl roof
usemap roof
f 74/74/74 73/73/73 75/75/75
f 76/76/76 74/74/74 75/75/75
f 77/77/77 76/76/76 75/75/75
f 78/78/78 77/77/77 75/75/75
f 79/79/79 78/78/78 75/75/75
f 80/80/80 79/79/79 75/75/75

g walls
usemtl walls
usemap walls
f 82/82/82 81/81/81 83/83/83
f 82/82/82 83/83/83 84/84/84
f 86/86/86 85/85/85 87/87/87
f 87/87/87 85/85/85 88/88/88
f 90/90/90 89/89/89 91/91/91
f 90/90/90 91/91/91 92/92/92
f 94/94/94 93/93/93 95/95/95
f 95/95/95 93/93/93 96/96/96
f 98/98/98 97/97/97 99/99/99
f 98/98/98 99/99/99 100/100/100
f 102/102/102 101/101/101 103/103/103
f 103/103/103 101/101/101 104/104/104
f 106/106/106 105/105/105 107/107/107
f 106/106/106 107/107/107 108/108/108
f 110/110/110 109/109/109 111/111/111
f 111/111/111 109/109/109 112/112/112
f 114/114/114 113/113/113 115/115/115
f 114/114/114 115/115/115 116/116/116
f 118/118/118 117/117/117 119/119/119
f 119/119/119 117/117/117 120/120/120
f 122/122/122 121/121/121 123/123/123
f 122/122/122 123/123/123 124/124/124
f 126/126/126 125/125/125 127/127/127
f 127/127/127 125/125/125 128/128/128
f 130/130/130 129/129/129 131/131/131
f 130/130/130 131/131/131 132/132/132
f 134/134/134 133/133/133 135/135/135
f 135/135/135 133/133/133 136/136/136
f 138/138/138 137/137/137 139/139/139
f 138/138/138 139/139/139 140/140/140
f 142/142/142 141/141/141 143/143/143
f 143/143/143 141/141/141 144/144/144
f 146/146/146 145/145/145 147/147/147
f 146/146/146 147/147/147 148/148/148
f 150/150/150 149/149/149 151/151/151
f 151/151/151 149/149/149 152/152/152
f 154/154/154 153/153/153 155/155/155
f 154/154/154 155/155/155 156/156/156
f 158/158/158 157/157/157 159/159/159
f 159/159/159 157/157/157 160/160/160
f 162/162/162 161/161/161 163/163/163
f 162/162/162 163/163/163 164/164/164
f 166/166/166 165/165/165 167/167/167
f 167/167/167 165/165/165 168/168/168
f 170/170/170 169/169/169 171/171/171
f 170/170/170 171/171/171 172/172/172
f 174/174/174 173/173/173 175/175/175
f 175/175/175 173/173/173 176/176/176
f 178/178/178 177/177/177 179/179/179
f 178/178/178 179/179/179 180/180/180
f 182/182/182 181/181/181 183/183/183
f 183/183/183 181/181/181 184/184/184
f 186/186/186 185/185/185 187/187/187
f 186/186/186 187/187/187 188/188/188
f 190/190/190 189/189/189 191/191/191
f 191/191/191 189/189/189 192/192/192
f 194/194/194 193/193/193 195/195/195
f 194/194/194 195/195/195 196/196/196
f 198/198/198 197/197/197 199/199/199
f 199/199/199 197/197/197 200/200/200
f 202/202/202 201/201/201 203/203/203
f 202/202/202 203/203/203 204/204/204
f 206/206/206 205/205/205 207/207/207
f 207/207/207 205/205/205 208/208/208

g walls
usemtl walls
usemap walls
