mtllib ./017.mtl
# Unity Asset Buildr OBJ Exporter
 http://buildr.jasperstocker.com
g 017
v -2020 0 140
v -2020 24 140
v -2048 0 140
v -2048 24 140
v -2048 0 140
v -2048 24 140
v -2048 0 120
v -2048 24 120
v -2048 0 120
v -2048 24 120
v -2020 0 120
v -2020 24 120
v -2020 0 120
v -2020 24 120
v -2020 0 92
v -2020 24 92
v -2020 0 92
v -2020 24 92
v -2068 0 92
v -2068 24 92
v -2068 0 92
v -2068 24 92
v -2068 0 168
v -2068 24 168
v -2068 0 168
v -2068 24 168
v -2020 0 168
v -2020 24 168
v -2020 0 168
v -2020 24 168
v -2020 0 140
v -2020 24 140
v -2048 0 120
v -2020 0 120
v -2020 0 92
v -2068 0 92
v -2048 0 140
v -2068 0 168
v -2020 0 140
v -2020 0 168
v -2020 24 168
v -2068 24 168
v -2020 24 140
v -2048 24 140
v -2068 24 92
v -2048 24 120
v -2020 24 92
v -2020 24 120
v -2048.141 24 140.1414
v -2048.141 25 140.1414
v -2020.141 24 140.1414
v -2020.141 25 140.1414
v -2020.141 25 140.1414
v -2048.141 25 140.1414
v -2047.929 25 139.9293
v -2019.929 25 139.9293
v -2019.929 24 139.9293
v -2019.929 25 139.9293
v -2047.929 24 139.9293
v -2047.929 25 139.9293
v -2048.141 24 140.1414
v -2020.141 24 140.1414
v -2019.929 24 139.9293
v -2047.929 24 139.9293
v -2048.141 24 119.8586
v -2048.141 25 119.8586
v -2048.141 24 140.1414
v -2048.141 25 140.1414
v -2048.141 25 140.1414
v -2048.141 25 119.8586
v -2047.929 25 120.0707
v -2047.929 25 139.9293
v -2047.929 24 139.9293
v -2047.929 25 139.9293
v -2047.929 24 120.0707
v -2047.929 25 120.0707
v -2048.141 24 119.8586
v -2048.141 24 140.1414
v -2047.929 24 139.9293
v -2047.929 24 120.0707
v -2020.141 24 119.8586
v -2020.141 25 119.8586
v -2048.141 24 119.8586
v -2048.141 25 119.8586
v -2048.141 25 119.8586
v -2020.141 25 119.8586
v -2019.929 25 120.0707
v -2047.929 25 120.0707
v -2047.929 24 120.0707
v -2047.929 25 120.0707
v -2019.929 24 120.0707
v -2019.929 25 120.0707
v -2020.141 24 119.8586
v -2048.141 24 119.8586
v -2047.929 24 120.0707
v -2019.929 24 120.0707
v -2020.141 24 92.14142
v -2020.141 25 92.14142
v -2020.141 24 119.8586
v -2020.141 25 119.8586
v -2020.141 25 119.8586
v -2020.141 25 92.14142
v -2019.929 25 91.92929
v -2019.929 25 120.0707
v -2019.929 24 120.0707
v -2019.929 25 120.0707
v -2019.929 24 91.92929
v -2019.929 25 91.92929
v -2020.141 24 92.14142
v -2020.141 24 119.8586
v -2019.929 24 120.0707
v -2019.929 24 91.92929
v -2067.859 24 92.14142
v -2067.859 25 92.14142
v -2020.141 24 92.14142
v -2020.141 25 92.14142
v -2020.141 25 92.14142
v -2067.859 25 92.14142
v -2068.071 25 91.92929
v -2019.929 25 91.92929
v -2019.929 24 91.92929
v -2019.929 25 91.92929
v -2068.071 24 91.92929
v -2068.071 25 91.92929
v -2067.859 24 92.14142
v -2020.141 24 92.14142
v -2019.929 24 91.92929
v -2068.071 24 91.92929
v -2067.859 24 167.8586
v -2067.859 25 167.8586
v -2067.859 24 92.14142
v -2067.859 25 92.14142
v -2067.859 25 92.14142
v -2067.859 25 167.8586
v -2068.071 25 168.0707
v -2068.071 25 91.92929
v -2068.071 24 91.92929
v -2068.071 25 91.92929
v -2068.071 24 168.0707
v -2068.071 25 168.0707
v -2067.859 24 167.8586
v -2067.859 24 92.14142
v -2068.071 24 91.92929
v -2068.071 24 168.0707
v -2020.141 24 167.8586
v -2020.141 25 167.8586
v -2067.859 24 167.8586
v -2067.859 25 167.8586
v -2067.859 25 167.8586
v -2020.141 25 167.8586
v -2019.929 25 168.0707
v -2068.071 25 168.0707
v -2068.071 24 168.0707
v -2068.071 25 168.0707
v -2019.929 24 168.0707
v -2019.929 25 168.0707
v -2020.141 24 167.8586
v -2067.859 24 167.8586
v -2068.071 24 168.0707
v -2019.929 24 168.0707
v -2020.141 24 140.1414
v -2020.141 25 140.1414
v -2020.141 24 167.8586
v -2020.141 25 167.8586
v -2020.141 25 167.8586
v -2020.141 25 140.1414
v -2019.929 25 139.9293
v -2019.929 25 168.0707
v -2019.929 24 168.0707
v -2019.929 25 168.0707
v -2019.929 24 139.9293
v -2019.929 25 139.9293
v -2020.141 24 140.1414
v -2020.141 24 167.8586
v -2019.929 24 168.0707
v -2019.929 24 139.9293

vn 0 0 -1
vn 0 0 -1
vn 0 0 -1
vn 0 0 -1
vn 1 0 0
vn 1 0 0
vn 1 0 0
vn 1 0 0
vn 0 0 1
vn 0 0 1
vn 0 0 1
vn 0 0 1
vn 1 0 0
vn 1 0 0
vn 1 0 0
vn 1 0 0
vn 0 0 -1
vn 0 0 -1
vn 0 0 -1
vn 0 0 -1
vn -1 0 0
vn -1 0 0
vn -1 0 0
vn -1 0 0
vn 0 0 1
vn 0 0 1
vn 0 0 1
vn 0 0 1
vn 1 0 0
vn 1 0 0
vn 1 0 0
vn 1 0 0
vn 0 -1 0
vn 0 -1 0
vn 0 -1 0
vn 0 -1 0
vn 0 -1 0
vn 0 -1 0
vn 0 -1 0
vn 0 -1 0
vn 0 1 0
vn 0 1 0
vn 0 1 0
vn 0 1 0
vn 0 1 0
vn 0 1 0
vn 0 1 0
vn 0 1 0
vn 0 0 0.9999999
vn 0 0 0.9999999
vn 0 0 0.9999999
vn 0 0 0.9999999
vn 0 1 0
vn 0 1 0
vn 0 1 0
vn 0 1 0
vn 0 0 -1
vn 0 0 -1
vn 0 0 -1
vn 0 0 -1
vn 0 -1 0
vn 0 -1 0
vn 0 -1 0
vn 0 -1 0
vn -1 0 0
vn -1 0 0
vn -1 0 0
vn -1 0 0
vn 0 1 0
vn 0 1 0
vn 0 1 0
vn 0 1 0
vn 1 0 0
vn 1 0 0
vn 1 0 0
vn 1 0 0
vn 0 -1 0
vn 0 -1 0
vn 0 -1 0
vn 0 -1 0
vn 0 0 -0.9999999
vn 0 0 -0.9999999
vn 0 0 -0.9999999
vn 0 0 -0.9999999
vn 0 1 0
vn 0 1 0
vn 0 1 0
vn 0 1 0
vn 0 0 1
vn 0 0 1
vn 0 0 1
vn 0 0 1
vn 0 -1 0
vn 0 -1 0
vn 0 -1 0
vn 0 -1 0
vn -1 0 0
vn -1 0 0
vn -1 0 0
vn -1 0 0
vn 0 1 0
vn 0 1 0
vn 0 1 0
vn 0 1 0
vn 0.9999999 0 0
vn 0.9999999 0 0
vn 0.9999999 0 0
vn 0.9999999 0 0
vn 0 -1 0
vn 0 -1 0
vn 0 -1 0
vn 0 -1 0
vn 0 0 1
vn 0 0 1
vn 0 0 1
vn 0 0 1
vn 0 1 0
vn 0 1 0
vn 0 1 0
vn 0 1 0
vn 0 0 -0.9999999
vn 0 0 -0.9999999
vn 0 0 -0.9999999
vn 0 0 -0.9999999
vn 0 -1 0
vn 0 -1 0
vn 0 -1 0
vn 0 -1 0
vn 1 0 0
vn 1 0 0
vn 1 0 0
vn 1 0 0
vn 0 1 0
vn 0 1 0
vn 0 1 0
vn 0 1 0
vn -0.9999999 0 0
vn -0.9999999 0 0
vn -0.9999999 0 0
vn -0.9999999 0 0
vn 0 -1 0
vn 0 -1 0
vn 0 -1 0
vn 0 -1 0
vn 0 0 -1
vn 0 0 -1
vn 0 0 -1
vn 0 0 -1
vn 0 1 0
vn 0 1 0
vn 0 1 0
vn 0 1 0
vn 0 0 0.9999999
vn 0 0 0.9999999
vn 0 0 0.9999999
vn 0 0 0.9999999
vn 0 -1 0
vn 0 -1 0
vn 0 -1 0
vn 0 -1 0
vn -1 0 0
vn -1 0 0
vn -1 0 0
vn -1 0 0
vn 0 1 0
vn 0 1 0
vn 0 1 0
vn 0 1 0
vn 0.9999999 0 0
vn 0.9999999 0 0
vn 0.9999999 0 0
vn 0.9999999 0 0
vn 0 -1 0
vn 0 -1 0
vn 0 -1 0
vn 0 -1 0

vt 0 0
vt 0 1
vt 1.171548 0
vt 1.171548 1
vt 0 0
vt 0 1
vt 0.8368201 0
vt 0.8368201 1
vt 0 0
vt 0 1
vt 1.171548 0
vt 1.171548 1
vt 0 0
vt 0 1
vt 1.171548 0
vt 1.171548 1
vt 0 0
vt 0 1
vt 2.008368 0
vt 2.008368 1
vt 0 0
vt 0 1
vt 3.179916 0
vt 3.179916 1
vt 0 0
vt 0 1
vt 2.008368 0
vt 2.008368 1
vt 0 0
vt 0 1
vt 1.171548 0
vt 1.171548 1
vt 0 0
vt 0 0
vt 0 0
vt 0 0
vt 0 0
vt 0 0
vt 0 0
vt 0 0
vt 336.6667 28
vt 344.6667 28
vt 336.6667 23.33333
vt 341.3333 23.33333
vt 344.6667 15.33333
vt 341.3333 20
vt 336.6667 15.33333
vt 336.6667 20
vt 0 0
vt 0 0.3333333
vt 9.333293 0
vt 9.333293 0.3333333
vt -27.99988 0
vt 0 0
vt -0.2120361 -0.2121277
vt -28.21204 -0.2121277
vt 0 0
vt 0 0.3333333
vt 9.333333 0
vt 9.333333 0.3333333
vt 27.99988 0
vt 0 0
vt -0.2121582 0.2121277
vt 27.78784 0.2121277
vt 0 0
vt 0 0.3333333
vt 6.760946 0
vt 6.760946 0.3333333
vt -20.28284 -2.417903E-06
vt 0 0
vt -0.2121277 -0.2120362
vt -20.07071 -0.2120386
vt 0 0
vt 0 0.3333333
vt 6.619527 0
vt 6.619527 0.3333333
vt 20.28284 -2.417903E-06
vt 0 0
vt 0.2121278 0.2120362
vt 20.07071 0.2120338
vt 0 0
vt 0 0.3333333
vt 9.333293 0
vt 9.333293 0.3333333
vt 27.99988 0
vt 0 0
vt -0.2121582 0.2121277
vt 27.78784 0.2121277
vt 0 0
vt 0 0.3333333
vt 9.333333 0
vt 9.333333 0.3333333
vt -27.99988 0
vt 0 0
vt -0.2120361 -0.2121277
vt -28.21204 -0.2121277
vt 0 0
vt 0 0.3333333
vt 9.239055 0
vt 9.239055 0.3333333
vt -27.71717 -3.304143E-06
vt 0 0
vt 0.2121278 -0.2121582
vt -27.9293 -0.2121616
vt 0 0
vt 0 0.3333333
vt 9.380473 0
vt 9.380473 0.3333333
vt 27.71717 -3.304143E-06
vt 0 0
vt -0.2121277 0.2121583
vt 27.9293 0.2121549
vt 0 0
vt 0 0.3333333
vt 15.90572 0
vt 15.90572 0.3333333
vt -47.71716 0
vt 0 0
vt 0.2121582 -0.2121277
vt -47.92932 -0.2121277
vt 0 0
vt 0 0.3333333
vt 16.04716 0
vt 16.04716 0.3333333
vt 47.71716 0
vt 0 0
vt -0.2121582 0.2121277
vt 47.92932 0.2121277
vt 0 0
vt 0 0.3333333
vt 25.23905 0
vt 25.23905 0.3333333
vt -75.71718 9.026189E-06
vt 0 0
vt 0.2121277 -0.2121583
vt -75.92931 -0.2121492
vt 0 0
vt 0 0.3333333
vt 25.38047 0
vt 25.38047 0.3333333
vt 75.71718 9.026189E-06
vt 0 0
vt -0.2121278 0.2121582
vt 75.92931 0.2121673
vt 0 0
vt 0 0.3333333
vt 15.90572 0
vt 15.90572 0.3333333
vt 47.71716 0
vt 0 0
vt -0.2121582 0.2121277
vt 47.92932 0.2121277
vt 0 0
vt 0 0.3333333
vt 16.04716 0
vt 16.04716 0.3333333
vt -47.71716 0
vt 0 0
vt 0.2121582 -0.2121277
vt -47.92932 -0.2121277
vt 0 0
vt 0 0.3333333
vt 9.239055 0
vt 9.239055 0.3333333
vt -27.71717 -3.304143E-06
vt 0 0
vt 0.2121278 -0.2121582
vt -27.9293 -0.2121616
vt 0 0
vt 0 0.3333333
vt 9.380473 0
vt 9.380473 0.3333333
vt 27.71717 -3.304143E-06
vt 0 0
vt -0.2121277 0.2121583
vt 27.9293 0.2121549

g bricks
usemtl bricks
usemap bricks
f 2/2/2 1/1/1 3/3/3
f 2/2/2 3/3/3 4/4/4
f 6/6/6 5/5/5 7/7/7
f 6/6/6 7/7/7 8/8/8
f 10/10/10 9/9/9 11/11/11
f 10/10/10 11/11/11 12/12/12
f 14/14/14 13/13/13 15/15/15
f 14/14/14 15/15/15 16/16/16
f 18/18/18 17/17/17 19/19/19
f 18/18/18 19/19/19 20/20/20
f 22/22/22 21/21/21 23/23/23
f 22/22/22 23/23/23 24/24/24
f 26/26/26 25/25/25 27/27/27
f 26/26/26 27/27/27 28/28/28
f 30/30/30 29/29/29 31/31/31
f 30/30/30 31/31/31 32/32/32
f 34/34/34 33/33/33 35/35/35
f 35/35/35 33/33/33 36/36/36
f 33/33/33 37/37/37 36/36/36
f 36/36/36 37/37/37 38/38/38
f 37/37/37 39/39/39 38/38/38
f 38/38/38 39/39/39 40/40/40

g roof
usemtl roof
usemap roof
f 42/42/42 41/41/41 43/43/43
f 44/44/44 42/42/42 43/43/43
f 45/45/45 42/42/42 44/44/44
f 46/46/46 45/45/45 44/44/44
f 47/47/47 45/45/45 46/46/46
f 48/48/48 47/47/47 46/46/46

g walls
usemtl walls
usemap walls
f 50/50/50 49/49/49 51/51/51
f 50/50/50 51/51/51 52/52/52
f 54/54/54 53/53/53 55/55/55
f 55/55/55 53/53/53 56/56/56
f 58/58/58 57/57/57 59/59/59
f 58/58/58 59/59/59 60/60/60
f 62/62/62 61/61/61 63/63/63
f 63/63/63 61/61/61 64/64/64
f 66/66/66 65/65/65 67/67/67
f 66/66/66 67/67/67 68/68/68
f 70/70/70 69/69/69 71/71/71
f 71/71/71 69/69/69 72/72/72
f 74/74/74 73/73/73 75/75/75
f 74/74/74 75/75/75 76/76/76
f 78/78/78 77/77/77 79/79/79
f 79/79/79 77/77/77 80/80/80
f 82/82/82 81/81/81 83/83/83
f 82/82/82 83/83/83 84/84/84
f 86/86/86 85/85/85 87/87/87
f 87/87/87 85/85/85 88/88/88
f 90/90/90 89/89/89 91/91/91
f 90/90/90 91/91/91 92/92/92
f 94/94/94 93/93/93 95/95/95
f 95/95/95 93/93/93 96/96/96
f 98/98/98 97/97/97 99/99/99
f 98/98/98 99/99/99 100/100/100
f 102/102/102 101/101/101 103/103/103
f 103/103/103 101/101/101 104/104/104
f 106/106/106 105/105/105 107/107/107
f 106/106/106 107/107/107 108/108/108
f 110/110/110 109/109/109 111/111/111
f 111/111/111 109/109/109 112/112/112
f 114/114/114 113/113/113 115/115/115
f 114/114/114 115/115/115 116/116/116
f 118/118/118 117/117/117 119/119/119
f 119/119/119 117/117/117 120/120/120
f 122/122/122 121/121/121 123/123/123
f 122/122/122 123/123/123 124/124/124
f 126/126/126 125/125/125 127/127/127
f 127/127/127 125/125/125 128/128/128
f 130/130/130 129/129/129 131/131/131
f 130/130/130 131/131/131 132/132/132
f 134/134/134 133/133/133 135/135/135
f 135/135/135 133/133/133 136/136/136
f 138/138/138 137/137/137 139/139/139
f 138/138/138 139/139/139 140/140/140
f 142/142/142 141/141/141 143/143/143
f 143/143/143 141/141/141 144/144/144
f 146/146/146 145/145/145 147/147/147
f 146/146/146 147/147/147 148/148/148
f 150/150/150 149/149/149 151/151/151
f 151/151/151 149/149/149 152/152/152
f 154/154/154 153/153/153 155/155/155
f 154/154/154 155/155/155 156/156/156
f 158/158/158 157/157/157 159/159/159
f 159/159/159 157/157/157 160/160/160
f 162/162/162 161/161/161 163/163/163
f 162/162/162 163/163/163 164/164/164
f 166/166/166 165/165/165 167/167/167
f 167/167/167 165/165/165 168/168/168
f 170/170/170 169/169/169 171/171/171
f 170/170/170 171/171/171 172/172/172
f 174/174/174 173/173/173 175/175/175
f 175/175/175 173/173/173 176/176/176

g walls
usemtl walls
usemap walls
